<svg width="430" height="932" viewBox="0 0 430 932" fill="none" xmlns="http://www.w3.org/2000/svg">
  <defs>
    <linearGradient id="bg2" x1="0" y1="0" x2="430" y2="932" gradientUnits="userSpaceOnUse">
      <stop stop-color="#0E1016"/>
      <stop offset="1" stop-color="#05060A"/>
    </linearGradient>
    <linearGradient id="card2" x1="32" y1="140" x2="398" y2="850" gradientUnits="userSpaceOnUse">
      <stop stop-color="#171B25"/>
      <stop offset="1" stop-color="#0E1219"/>
    </linearGradient>
    <linearGradient id="teal" x1="48" y1="460" x2="320" y2="680" gradientUnits="userSpaceOnUse">
      <stop stop-color="#63E5C2"/>
      <stop offset="1" stop-color="#4BC6FF"/>
    </linearGradient>
    <linearGradient id="violet" x1="48" y1="460" x2="320" y2="680" gradientUnits="userSpaceOnUse">
      <stop stop-color="#A779FF"/>
      <stop offset="1" stop-color="#6C5CFF"/>
    </linearGradient>
  </defs>

  <rect width="430" height="932" rx="36" fill="url(#bg2)"/>
  <circle cx="90" cy="110" r="120" fill="#191626" opacity="0.7"/>
  <circle cx="362" cy="200" r="100" fill="#142231" opacity="0.52"/>

  <text x="32" y="64" fill="#FFFFFF" font-size="30" font-weight="700" font-family="Arial, sans-serif">Stats</text>
  <text x="32" y="92" fill="#8C92A3" font-size="13" font-family="Arial, sans-serif">Genre intelligence should feel polished, not cramped</text>

  <rect x="32" y="124" width="366" height="322" rx="30" fill="url(#card2)" stroke="#232A36"/>
  <text x="56" y="162" fill="#FFFFFF" font-size="22" font-weight="700" font-family="Arial, sans-serif">Genre Universe</text>
  <text x="56" y="186" fill="#8F96A7" font-size="13" font-family="Arial, sans-serif">Radar, top genres, and combos live in one cohesive module</text>
  <rect x="56" y="206" width="318" height="1" fill="#202634"/>

  <circle cx="150" cy="318" r="92" stroke="#2A3140" stroke-width="1.5"/>
  <circle cx="150" cy="318" r="64" stroke="#252B38" stroke-width="1.5"/>
  <circle cx="150" cy="318" r="36" stroke="#202634" stroke-width="1.5"/>
  <line x1="150" y1="226" x2="150" y2="410" stroke="#242B38" stroke-width="1"/>
  <line x1="58" y1="318" x2="242" y2="318" stroke="#242B38" stroke-width="1"/>
  <line x1="84" y1="252" x2="216" y2="384" stroke="#242B38" stroke-width="1"/>
  <line x1="216" y1="252" x2="84" y2="384" stroke="#242B38" stroke-width="1"/>
  <path d="M150 248L204 286L194 352L150 378L104 350L98 286L150 248Z" fill="#6D5CFF" fill-opacity="0.25" stroke="url(#violet)" stroke-width="3"/>
  <circle cx="150" cy="248" r="4" fill="#8A72FF"/>
  <circle cx="204" cy="286" r="4" fill="#8A72FF"/>
  <circle cx="194" cy="352" r="4" fill="#8A72FF"/>
  <circle cx="150" cy="378" r="4" fill="#8A72FF"/>
  <circle cx="104" cy="350" r="4" fill="#8A72FF"/>
  <circle cx="98" cy="286" r="4" fill="#8A72FF"/>
  <text x="135" y="220" fill="#AAB0C1" font-size="11" font-family="Arial, sans-serif">Drama</text>
  <text x="218" y="290" fill="#AAB0C1" font-size="11" font-family="Arial, sans-serif">Thriller</text>
  <text x="198" y="392" fill="#AAB0C1" font-size="11" font-family="Arial, sans-serif">Sci-Fi</text>
  <text x="138" y="428" fill="#AAB0C1" font-size="11" font-family="Arial, sans-serif">Crime</text>
  <text x="56" y="386" fill="#AAB0C1" font-size="11" font-family="Arial, sans-serif">Action</text>
  <text x="42" y="286" fill="#AAB0C1" font-size="11" font-family="Arial, sans-serif">Mystery</text>

  <rect x="268" y="236" width="106" height="40" rx="16" fill="#141923" stroke="#242C39"/>
  <text x="286" y="261" fill="#FFFFFF" font-size="14" font-weight="700" font-family="Arial, sans-serif">Drama</text>
  <text x="345" y="261" fill="#8B92A2" font-size="13" font-family="Arial, sans-serif">42%</text>
  <rect x="268" y="287" width="106" height="40" rx="16" fill="#141923" stroke="#242C39"/>
  <text x="286" y="312" fill="#FFFFFF" font-size="14" font-weight="700" font-family="Arial, sans-serif">Crime</text>
  <text x="344" y="312" fill="#8B92A2" font-size="13" font-family="Arial, sans-serif">31%</text>
  <rect x="268" y="338" width="106" height="40" rx="16" fill="#141923" stroke="#242C39"/>
  <text x="286" y="363" fill="#FFFFFF" font-size="14" font-weight="700" font-family="Arial, sans-serif">Sci-Fi</text>
  <text x="342" y="363" fill="#8B92A2" font-size="13" font-family="Arial, sans-serif">25%</text>

  <rect x="56" y="398" width="140" height="28" rx="14" fill="#1C2130"/>
  <text x="79" y="417" fill="#8A72FF" font-size="12" font-weight="700" font-family="Arial, sans-serif">Drama + Crime</text>
  <rect x="206" y="398" width="88" height="28" rx="14" fill="#1C2130"/>
  <text x="227" y="417" fill="#59DCCB" font-size="12" font-weight="700" font-family="Arial, sans-serif">18 titles</text>

  <rect x="32" y="470" width="366" height="182" rx="30" fill="url(#card2)" stroke="#232A36"/>
  <text x="56" y="508" fill="#FFFFFF" font-size="22" font-weight="700" font-family="Arial, sans-serif">Genre Combos</text>
  <text x="56" y="532" fill="#8F96A7" font-size="13" font-family="Arial, sans-serif">Each row gets breathing room, a ranking lane, and a clear count anchor</text>
  <rect x="56" y="556" width="318" height="1" fill="#202634"/>

  <text x="56" y="592" fill="#727A8D" font-size="13" font-weight="700" font-family="Arial, sans-serif">01</text>
  <rect x="84" y="574" width="104" height="34" rx="17" fill="#211B29"/>
  <text x="113" y="596" fill="#B184FF" font-size="13" font-weight="700" font-family="Arial, sans-serif">Drama</text>
  <text x="196" y="596" fill="#7E8596" font-size="14" font-weight="700" font-family="Arial, sans-serif">+</text>
  <rect x="212" y="574" width="104" height="34" rx="17" fill="#141E25"/>
  <text x="238" y="596" fill="#63E5C2" font-size="13" font-weight="700" font-family="Arial, sans-serif">Crime</text>
  <text x="335" y="596" fill="#FFFFFF" font-size="14" font-weight="700" font-family="Arial, sans-serif">18</text>

  <text x="56" y="640" fill="#727A8D" font-size="13" font-weight="700" font-family="Arial, sans-serif">02</text>
  <rect x="84" y="622" width="104" height="34" rx="17" fill="#141E25"/>
  <text x="108" y="644" fill="#63E5C2" font-size="13" font-weight="700" font-family="Arial, sans-serif">Mystery</text>
  <text x="196" y="644" fill="#7E8596" font-size="14" font-weight="700" font-family="Arial, sans-serif">+</text>
  <rect x="212" y="622" width="104" height="34" rx="17" fill="#211B29"/>
  <text x="242" y="644" fill="#B184FF" font-size="13" font-weight="700" font-family="Arial, sans-serif">Drama</text>
  <text x="335" y="644" fill="#FFFFFF" font-size="14" font-weight="700" font-family="Arial, sans-serif">14</text>

  <rect x="32" y="676" width="366" height="208" rx="30" fill="url(#card2)" stroke="#232A36"/>
  <text x="56" y="714" fill="#FFFFFF" font-size="22" font-weight="700" font-family="Arial, sans-serif">Top Genres</text>
  <text x="56" y="738" fill="#8F96A7" font-size="13" font-family="Arial, sans-serif">Use layered bars with subtle depth, not flat legacy progress strips</text>
  <rect x="56" y="760" width="318" height="1" fill="#202634"/>
  <rect x="56" y="792" width="318" height="14" rx="7" fill="#1A202C"/>
  <rect x="56" y="792" width="248" height="14" rx="7" fill="url(#violet)"/>
  <text x="56" y="785" fill="#FFFFFF" font-size="13" font-family="Arial, sans-serif">Drama</text>
  <text x="340" y="785" fill="#AAB0C1" font-size="13" font-family="Arial, sans-serif">42%</text>
  <rect x="56" y="835" width="318" height="14" rx="7" fill="#1A202C"/>
  <rect x="56" y="835" width="182" height="14" rx="7" fill="url(#teal)"/>
  <text x="56" y="828" fill="#FFFFFF" font-size="13" font-family="Arial, sans-serif">Crime</text>
  <text x="340" y="828" fill="#AAB0C1" font-size="13" font-family="Arial, sans-serif">31%</text>
</svg>
